<?xml version="1.0" standalone="no"?>
<!DOCTYPE svg PUBLIC "-//W3C//DTD SVG 20010904//EN"
 "http://www.w3.org/TR/2001/REC-SVG-20010904/DTD/svg10.dtd">
<svg version="1.0" xmlns="http://www.w3.org/2000/svg"
 width="608.000000pt" height="654.000000pt" viewBox="0 0 608.000000 654.000000"
 preserveAspectRatio="xMidYMid meet">
<metadata>
Created by potrace 1.16, written by Peter Selinger 2001-2019
</metadata>
<g transform="translate(0.000000,654.000000) scale(0.100000,-0.100000)"
fill="#000000" stroke="none">
<path d="M0 3270 l0 -3270 3040 0 3040 0 0 2286 0 2286 -32 -24 c-201 -153
-690 -504 -921 -661 -117 -80 -156 -87 -205 -37 -60 59 -47 136 30 189 461
320 608 426 926 669 l202 155 0 838 0 839 -3040 0 -3040 0 0 -3270z m4670
2379 c144 -31 264 -120 323 -238 31 -63 32 -70 32 -186 0 -89 -5 -134 -18
-175 -72 -217 -253 -451 -582 -751 -154 -140 -166 -148 -215 -149 -83 0 -138
97 -94 168 9 15 61 65 116 112 127 109 348 335 416 425 29 39 73 111 98 160
99 198 76 332 -68 396 -80 35 -268 39 -443 9 -537 -91 -1361 -463 -1943 -877
-341 -243 -560 -463 -654 -659 -88 -182 -49 -305 120 -383 202 -92 494 -108
1237 -65 502 29 973 13 1250 -42 411 -82 645 -297 645 -594 0 -254 -170 -527
-527 -845 -563 -502 -1530 -989 -2117 -1066 -133 -17 -355 -7 -438 20 -195 63
-311 225 -295 413 11 132 78 254 222 406 281 297 766 591 1475 897 327 141
346 148 385 135 72 -24 105 -105 66 -166 -14 -23 -39 -40 -98 -64 -424 -174
-766 -335 -1003 -470 -160 -92 -383 -240 -485 -323 -121 -97 -268 -255 -301
-322 -154 -317 222 -409 842 -206 588 192 1333 640 1726 1038 167 169 255 293
298 423 28 83 25 203 -7 265 -85 165 -347 254 -838 286 -198 13 -423 9 -910
-17 -333 -17 -767 -14 -905 6 -177 27 -311 73 -420 145 -210 139 -252 385
-112 660 168 331 710 769 1402 1133 463 243 1067 460 1395 501 50 6 104 13
120 15 52 7 248 -2 305 -15z"/>
</g>
</svg>
