<?xml version="1.0" standalone="no"?>
<!DOCTYPE svg PUBLIC "-//W3C//DTD SVG 20010904//EN"
 "http://www.w3.org/TR/2001/REC-SVG-20010904/DTD/svg10.dtd">
<svg version="1.0" xmlns="http://www.w3.org/2000/svg"
 width="1189.000000pt" height="654.000000pt" viewBox="0 0 1189.000000 654.000000"
 preserveAspectRatio="xMidYMid meet">
<metadata>
Created by potrace 1.16, written by Peter Selinger 2001-2019
</metadata>
<g transform="translate(0.000000,654.000000) scale(0.100000,-0.100000)"
fill="#000000" stroke="none">
<path d="M3687 4213 l2 -2328 2271 -3 2270 -2 0 1681 c0 1341 -3 1679 -12
1673 -7 -5 -80 -58 -163 -119 -176 -131 -486 -345 -534 -369 -58 -31 -121 4
-121 67 0 41 20 63 112 123 113 72 324 223 531 377 l187 141 0 543 0 543
-2272 0 -2273 0 2 -2327z m3323 1817 c144 -19 258 -100 293 -211 44 -136 1
-290 -132 -467 -64 -84 -319 -337 -390 -386 -54 -38 -96 -38 -128 -2 -41 48
-32 72 60 156 315 285 436 448 437 588 0 107 -61 153 -213 160 -189 9 -493
-69 -841 -215 -837 -353 -1446 -880 -1290 -1118 72 -111 314 -147 829 -124
438 20 858 18 1003 -4 288 -45 453 -130 529 -274 157 -295 -82 -659 -692
-1058 -572 -374 -1151 -575 -1479 -514 -163 30 -262 126 -274 264 -18 226 220
469 735 753 224 124 727 342 788 342 60 0 96 -82 58 -129 -10 -12 -79 -45
-153 -75 -528 -210 -911 -428 -1126 -641 -100 -100 -134 -158 -134 -231 0 -38
5 -51 30 -74 46 -43 102 -54 253 -47 138 6 214 22 387 79 281 92 667 293 940
488 357 255 544 482 544 660 1 134 -78 209 -270 260 -209 55 -507 66 -1047 41
-715 -34 -980 24 -1084 238 -24 47 -28 68 -27 136 0 125 55 241 182 387 272
312 854 665 1452 881 329 118 569 161 760 137z"/>
<path d="M2601 874 c-159 -42 -240 -180 -186 -312 34 -80 89 -113 279 -167
196 -55 238 -83 238 -161 0 -101 -128 -162 -283 -136 -73 13 -131 37 -186 78
-17 13 -34 24 -37 24 -10 0 -47 -82 -43 -94 8 -20 137 -83 197 -96 33 -7 103
-11 170 -9 106 4 119 6 170 35 131 73 169 237 78 340 -44 49 -108 79 -258 119
-185 49 -217 70 -227 142 -4 29 1 46 19 72 72 106 256 112 429 14 6 -4 39 63
39 80 0 8 -17 23 -38 35 -87 49 -253 65 -361 36z"/>
<path d="M3953 880 c-139 -30 -217 -116 -218 -242 0 -58 4 -72 30 -109 40 -56
107 -92 245 -129 201 -54 256 -91 254 -170 -2 -50 -27 -85 -82 -112 -39 -19
-63 -23 -137 -22 -99 0 -163 18 -230 63 -22 15 -46 30 -53 35 -8 5 -19 -8 -33
-41 l-20 -48 28 -22 c15 -13 57 -35 93 -50 61 -26 74 -28 215 -28 139 0 153 2
195 24 59 30 88 57 111 103 60 117 18 243 -101 303 -26 13 -100 38 -166 55
-191 50 -236 80 -236 155 0 49 30 95 81 122 81 43 254 28 334 -29 32 -23 38
-19 61 35 15 36 14 38 -9 53 -77 50 -255 77 -362 54z"/>
<path d="M4933 875 c-82 -22 -153 -63 -208 -119 -211 -217 -148 -579 124 -714
71 -35 81 -37 187 -41 171 -5 261 28 366 136 162 166 158 449 -7 619 -111 114
-300 162 -462 119z m279 -119 c73 -35 150 -118 175 -188 12 -36 18 -80 17
-135 0 -71 -5 -90 -33 -147 -39 -79 -101 -137 -180 -167 -46 -17 -72 -20 -146
-17 -79 3 -98 8 -153 38 -116 61 -176 162 -176 295 -1 116 22 175 99 252 50
50 73 65 126 82 89 29 193 24 271 -13z"/>
<path d="M9303 875 c-127 -35 -219 -105 -273 -206 -127 -239 -45 -511 189
-627 l75 -37 140 0 c135 0 144 1 199 28 169 83 271 263 253 442 -19 181 -124
325 -284 386 -74 28 -224 35 -299 14z m281 -124 c79 -39 137 -102 167 -180 29
-79 25 -214 -10 -286 -32 -63 -93 -125 -156 -155 -66 -32 -200 -40 -271 -16
-99 33 -188 124 -216 220 -7 23 -12 75 -12 116 0 113 52 213 147 282 93 67
237 75 351 19z"/>
<path d="M11455 876 c-92 -23 -164 -76 -191 -143 -21 -49 -18 -139 6 -189 35
-70 92 -101 290 -154 119 -32 192 -67 210 -100 5 -10 10 -37 10 -59 0 -83 -86
-137 -220 -135 -94 0 -172 23 -241 70 -29 21 -54 33 -56 27 -2 -6 -12 -27 -23
-47 l-18 -37 40 -29 c73 -53 141 -73 268 -78 67 -2 135 0 166 7 64 15 131 58
164 107 22 33 25 48 25 125 0 82 -2 89 -31 126 -44 55 -111 87 -267 127 -196
50 -236 80 -224 167 12 89 94 134 235 127 73 -3 99 -9 148 -33 32 -17 62 -31
65 -33 6 -3 39 70 39 87 0 16 -101 58 -164 70 -76 14 -167 13 -231 -3z"/>
<path d="M197 448 c-109 -238 -197 -436 -197 -440 0 -5 26 -8 58 -8 l57 0 44
102 c24 57 48 109 54 116 7 9 64 12 246 10 l235 -3 50 -113 50 -112 63 0 c35
0 63 2 63 4 0 2 -92 199 -204 437 l-204 434 -59 3 -60 3 -196 -433z m373 57
c39 -88 74 -166 77 -172 4 -10 -38 -13 -191 -13 -108 0 -196 2 -196 5 0 6 168
392 183 420 11 22 -2 46 127 -240z"/>
<path d="M1160 440 l0 -440 55 0 55 0 2 325 3 324 161 -267 c147 -243 164
-267 190 -270 28 -2 35 7 182 263 84 145 158 267 163 270 5 4 9 -121 9 -319
l0 -326 55 0 55 0 0 441 0 440 -52 -3 -52 -3 -179 -308 -180 -308 -185 311
-185 310 -48 0 -49 0 0 -440z"/>
<path d="M5815 868 c-3 -7 -4 -204 -3 -438 l3 -425 293 -3 292 -2 0 50 0 50
-235 0 -235 0 0 390 0 390 -55 0 c-35 0 -57 -5 -60 -12z"/>
<path d="M6630 607 c0 -304 7 -364 53 -451 62 -116 160 -161 340 -154 97 3
119 7 163 30 73 38 130 107 154 186 18 58 20 93 20 363 l0 299 -49 0 -49 0 -5
-292 c-2 -180 -8 -306 -15 -327 -35 -106 -118 -161 -241 -161 -88 0 -139 20
-188 71 -65 69 -68 83 -71 412 l-3 297 -55 0 -54 0 0 -273z"/>
<path d="M7590 830 l0 -51 151 2 152 1 3 -389 3 -388 50 -3 51 -3 0 390 0 390
153 3 152 3 0 45 0 45 -357 3 -358 2 0 -50z"/>
<path d="M8560 440 l0 -440 55 0 55 0 0 440 0 440 -55 0 -55 0 0 -440z"/>
<path d="M10180 440 l0 -441 58 3 57 3 5 332 5 332 270 -334 270 -335 48 0 47
0 0 440 0 440 -60 0 -60 0 0 -335 0 -336 -67 83 c-111 137 -414 510 -447 550
-28 34 -36 38 -78 38 l-48 0 0 -440z"/>
</g>
</svg>
